<svg width="50" height="50" viewBox="0 0 50 50" fill="none" xmlns="http://www.w3.org/2000/svg">
<g id="Group">
<path id="Vector" d="M25 45C30.3043 45 35.3914 42.8929 39.1421 39.1421C42.8929 35.3914 45 30.3043 45 25C45 19.6957 42.8929 14.6086 39.1421 10.8579C35.3914 7.10714 30.3043 5 25 5C19.6957 5 14.6086 7.10714 10.8579 10.8579C7.10714 14.6086 5 19.6957 5 25C5 30.3043 7.10714 35.3914 10.8579 39.1421C14.6086 42.8929 19.6957 45 25 45V45ZM25 50C11.1925 50 0 38.8075 0 25C0 11.1925 11.1925 0 25 0C38.8075 0 50 11.1925 50 25C50 38.8075 38.8075 50 25 50Z" fill="black"/>
<path id="Vector_2" d="M26.0049 12.827C25.6753 12.6088 25.2877 12.4944 24.8923 12.4989C24.497 12.5034 24.1121 12.6264 23.7874 12.852L13.8499 19.7745C13.5886 19.9563 13.375 20.1985 13.2274 20.4805C13.0799 20.7626 13.0027 21.0762 13.0024 21.3945V28.8495C13.0026 29.1761 13.0838 29.4975 13.2387 29.7851C13.3936 30.0726 13.6173 30.3172 13.8899 30.497L23.9874 37.172C24.3102 37.3849 24.6883 37.4984 25.0749 37.4984C25.4616 37.4984 25.8397 37.3849 26.1624 37.172L36.4624 30.367C36.7342 30.1871 36.9573 29.9428 37.1117 29.6558C37.2661 29.3687 37.3471 29.048 37.3474 28.722V21.397C37.3479 21.0702 37.2674 20.7485 37.1129 20.4605C36.9584 20.1725 36.7349 19.9274 36.4624 19.747L26.0024 12.827H26.0049ZM33.6974 20.902L29.8899 23.4595L26.3199 20.8645L26.2974 15.757L33.6974 20.9045V20.902ZM23.7149 15.7645V20.762L20.0574 23.317L16.4074 20.8695L23.7149 15.762V15.7645ZM15.4099 23.332L17.7699 24.9145L15.4099 26.567V23.332V23.332ZM23.7774 33.9845L16.4099 29.0445L20.0899 26.472L23.7774 28.947V33.9845V33.9845ZM22.3774 24.8745L24.7649 23.207L27.5399 25.032L25.0799 26.687L22.3799 24.8745H22.3774ZM26.3799 33.9845V28.9445L29.9049 26.5845L33.6974 29.077L26.3799 33.9845ZM34.7474 26.652L32.2474 25.0095L34.7474 23.332V26.652Z" fill="black"/>
</g>
</svg>
