<svg width="50" height="50" viewBox="0 0 50 50" fill="none" xmlns="http://www.w3.org/2000/svg">
<g id="Group">
<path id="Vector" d="M25 45C30.3043 45 35.3914 42.8929 39.1421 39.1421C42.8929 35.3914 45 30.3043 45 25C45 19.6957 42.8929 14.6086 39.1421 10.8579C35.3914 7.10714 30.3043 5 25 5C19.6957 5 14.6086 7.10714 10.8579 10.8579C7.10714 14.6086 5 19.6957 5 25C5 30.3043 7.10714 35.3914 10.8579 39.1421C14.6086 42.8929 19.6957 45 25 45V45ZM25 50C11.1925 50 0 38.8075 0 25C0 11.1925 11.1925 0 25 0C38.8075 0 50 11.1925 50 25C50 38.8075 38.8075 50 25 50Z" fill="white"/>
<path id="Vector_2" d="M26.005 12.8273C25.6753 12.609 25.2877 12.4947 24.8924 12.4991C24.497 12.5036 24.1121 12.6266 23.7875 12.8523L13.85 19.7748C13.5886 19.9565 13.375 20.1987 13.2275 20.4808C13.0799 20.7629 13.0027 21.0764 13.0025 21.3948V28.8498C13.0027 29.1763 13.0838 29.4978 13.2387 29.7853C13.3936 30.0728 13.6174 30.3174 13.89 30.4973L23.9875 37.1723C24.3102 37.3852 24.6883 37.4986 25.075 37.4986C25.4616 37.4986 25.8397 37.3852 26.1625 37.1723L36.4625 30.3673C36.7343 30.1874 36.9573 29.943 37.1117 29.656C37.2662 29.369 37.3471 29.0482 37.3475 28.7223V21.3973C37.348 21.0705 37.2674 20.7487 37.1129 20.4607C36.9585 20.1728 36.735 19.9276 36.4625 19.7473L26.0025 12.8273H26.005ZM33.6975 20.9023L29.89 23.4598L26.32 20.8648L26.2975 15.7573L33.6975 20.9048V20.9023ZM23.715 15.7648V20.7623L20.0575 23.3173L16.4075 20.8698L23.715 15.7623V15.7648ZM15.41 23.3323L17.77 24.9148L15.41 26.5673V23.3323V23.3323ZM23.7775 33.9848L16.41 29.0448L20.09 26.4723L23.7775 28.9473V33.9848V33.9848ZM22.3775 24.8748L24.765 23.2073L27.54 25.0323L25.08 26.6873L22.38 24.8748H22.3775ZM26.38 33.9848V28.9448L29.905 26.5848L33.6975 29.0773L26.38 33.9848ZM34.7475 26.6523L32.2475 25.0098L34.7475 23.3323V26.6523Z" fill="white"/>
</g>
</svg>
