<svg width="111" height="111" viewBox="0 0 111 111" fill="none" xmlns="http://www.w3.org/2000/svg">
<path d="M24.975 11.1C21.2951 11.1 17.766 12.5618 15.1639 15.1639C12.5618 17.7659 11.1 21.2951 11.1 24.975V74.925C11.1 78.6049 12.5618 82.134 15.1639 84.7361C17.766 87.3381 21.2951 88.8 24.975 88.8H52.5863C53.1968 86.7964 54.1569 84.915 55.4168 83.25H24.975C22.7671 83.25 20.6496 82.3729 19.0883 80.8116C17.5271 79.2504 16.65 77.1329 16.65 74.925V33.2944H83.25V55.1836L83.8161 54.6175C85.2924 53.1357 86.9907 52.009 88.8 51.232V24.975C88.8 21.2951 87.3382 17.7659 84.7361 15.1639C82.134 12.5618 78.6049 11.1 74.925 11.1H24.975ZM16.6445 24.9694C16.6445 22.7615 17.5216 20.644 19.0828 19.0828C20.644 17.5215 22.7615 16.6444 24.9695 16.6444H74.9195C77.1274 16.6444 79.2449 17.5215 80.8061 19.0828C82.3674 20.644 83.2445 22.7615 83.2445 24.9694V27.7444H16.6445V24.9694V24.9694ZM46.3536 39.6547C46.8738 40.1751 47.1661 40.8808 47.1661 41.6166C47.1661 42.3525 46.8738 43.0582 46.3536 43.5786L34.4433 55.5L46.3536 67.4103C46.8591 67.9336 47.1388 68.6346 47.1325 69.3622C47.1262 70.0898 46.8343 70.7858 46.3198 71.3003C45.8053 71.8148 45.1093 72.1067 44.3817 72.113C43.6541 72.1193 42.9531 71.8396 42.4298 71.3341L28.5548 57.4591C28.0345 56.9387 27.7423 56.233 27.7423 55.4972C27.7423 54.7614 28.0345 54.0557 28.5548 53.5353L42.4298 39.6603C42.9501 39.14 43.6558 38.8478 44.3917 38.8478C45.1275 38.8478 45.8332 39.14 46.3536 39.6603V39.6547ZM56.3103 67.4047C55.79 67.9258 55.4979 68.6322 55.4985 69.3686C55.499 70.105 55.792 70.811 56.3131 71.3313C56.8341 71.8517 57.5406 72.1437 58.277 72.1432C59.0134 72.1427 59.7194 71.8496 60.2397 71.3286L74.1147 57.4536C74.6349 56.9332 74.9272 56.2275 74.9272 55.4916C74.9272 54.7558 74.6349 54.0501 74.1147 53.5297L60.2397 39.6547C59.7194 39.1337 59.0134 38.8406 58.277 38.8401C57.5406 38.8396 56.8341 39.1316 56.3131 39.6519C55.792 40.1723 55.499 40.8783 55.4985 41.6147C55.4979 42.3511 55.79 43.0575 56.3103 43.5786L68.2262 55.5L56.3103 67.4103V67.4047ZM87.74 58.5414L60.9335 85.3479C59.3731 86.9101 58.2663 88.8667 57.7311 91.0089L55.6499 99.3228C55.4446 100.15 55.4567 101.016 55.685 101.836C55.9133 102.657 56.35 103.405 56.9527 104.007C57.5554 104.609 58.3037 105.045 59.1247 105.273C59.9457 105.5 60.8116 105.512 61.6383 105.306L69.9522 103.23C72.0945 102.692 74.0537 101.587 75.6132 100.022L102.42 73.2156C104.341 71.2638 105.413 68.6318 105.401 65.8932C105.39 63.1546 104.297 60.5314 102.36 58.5952C100.423 56.6591 97.7998 55.567 95.0612 55.5569C92.3226 55.5468 89.691 56.6196 87.74 58.5414Z" fill="#6700EE"/>
</svg>
