<svg width="50" height="50" viewBox="0 0 50 50" fill="none" xmlns="http://www.w3.org/2000/svg">
<g id="Group">
<path id="Vector" d="M37.5 27.8252V37.0677H32.1425V28.4427C32.1425 26.2777 31.3675 24.8002 29.4275 24.8002C27.9475 24.8002 27.065 25.7952 26.6775 26.7602C26.5375 27.1052 26.5 27.5852 26.5 28.0652V37.0677H21.14C21.14 37.0677 21.2125 22.4627 21.14 20.9502H26.5V23.2327L26.465 23.2852H26.5V23.2352C27.2125 22.1352 28.4825 20.5702 31.33 20.5702C34.855 20.5702 37.5 22.8752 37.5 27.8252V27.8252ZM15.5325 13.1777C13.7 13.1777 12.5 14.3827 12.5 15.9627C12.5 17.5127 13.665 18.7502 15.4625 18.7502H15.4975C17.3675 18.7502 18.53 17.5102 18.53 15.9627C18.495 14.3827 17.3675 13.1777 15.5325 13.1777ZM12.8175 37.0677H18.1775V20.9502H12.8175V37.0677V37.0677Z" fill="white"/>
<path id="Vector_2" d="M25 45C30.3043 45 35.3914 42.8929 39.1421 39.1421C42.8929 35.3914 45 30.3043 45 25C45 19.6957 42.8929 14.6086 39.1421 10.8579C35.3914 7.10714 30.3043 5 25 5C19.6957 5 14.6086 7.10714 10.8579 10.8579C7.10714 14.6086 5 19.6957 5 25C5 30.3043 7.10714 35.3914 10.8579 39.1421C14.6086 42.8929 19.6957 45 25 45V45ZM25 50C11.1925 50 0 38.8075 0 25C0 11.1925 11.1925 0 25 0C38.8075 0 50 11.1925 50 25C50 38.8075 38.8075 50 25 50Z" fill="white"/>
</g>
</svg>
