<svg width="105" height="105" viewBox="0 0 105 105" fill="none" xmlns="http://www.w3.org/2000/svg">
<g id="mdi:responsive">
<path id="Vector" d="M17.5 26.25V70H39.375V52.5C39.375 50.1794 40.2969 47.9538 41.9378 46.3128C43.5788 44.6719 45.8044 43.75 48.125 43.75H70C72.3206 43.75 74.5462 44.6719 76.1872 46.3128C77.8281 47.9538 78.75 50.1794 78.75 52.5V70H87.5V26.25H17.5ZM0 87.5V78.75H17.5C15.1794 78.75 12.9538 77.8281 11.3128 76.1872C9.67187 74.5462 8.75 72.3206 8.75 70V26.25C8.75 23.9294 9.67187 21.7038 11.3128 20.0628C12.9538 18.4219 15.1794 17.5 17.5 17.5H87.5C89.8206 17.5 92.0462 18.4219 93.6872 20.0628C95.3281 21.7038 96.25 23.9294 96.25 26.25V70C96.25 72.3206 95.3281 74.5462 93.6872 76.1872C92.0462 77.8281 89.8206 78.75 87.5 78.75H105V87.5H78.75C78.75 89.8206 77.8281 92.0462 76.1872 93.6872C74.5462 95.3281 72.3206 96.25 70 96.25H48.125C45.8044 96.25 43.5788 95.3281 41.9378 93.6872C40.2969 92.0462 39.375 89.8206 39.375 87.5H0ZM50.3125 87.5C49.7323 87.5 49.1759 87.7305 48.7657 88.1407C48.3555 88.5509 48.125 89.1073 48.125 89.6875C48.125 90.2677 48.3555 90.8241 48.7657 91.2343C49.1759 91.6445 49.7323 91.875 50.3125 91.875C50.8927 91.875 51.4491 91.6445 51.8593 91.2343C52.2695 90.8241 52.5 90.2677 52.5 89.6875C52.5 89.1073 52.2695 88.5509 51.8593 88.1407C51.4491 87.7305 50.8927 87.5 50.3125 87.5ZM67.8125 87.5C67.2323 87.5 66.6759 87.7305 66.2657 88.1407C65.8555 88.5509 65.625 89.1073 65.625 89.6875C65.625 90.2677 65.8555 90.8241 66.2657 91.2343C66.6759 91.6445 67.2323 91.875 67.8125 91.875C68.3927 91.875 68.9491 91.6445 69.3593 91.2343C69.7695 90.8241 70 90.2677 70 89.6875C70 89.1073 69.7695 88.5509 69.3593 88.1407C68.9491 87.7305 68.3927 87.5 67.8125 87.5ZM56.875 87.5V91.875H61.25V87.5H56.875ZM48.125 52.5V83.125H70V52.5H48.125Z" fill="#6700EE"/>
</g>
</svg>
