<svg width="144" height="120" viewBox="0 0 144 120" fill="none" xmlns="http://www.w3.org/2000/svg">
<g id="triangles 1">
<g id="triangles">
<g id="lightGroup">
<path id="light1" opacity="0.7" d="M51.6 57.9215C53.1999 58.8453 53.1999 61.1547 51.6 62.0785L10.2 85.9807C8.59997 86.9044 6.59998 85.7498 6.59998 83.9023V36.0976C6.59998 34.2501 8.59998 33.0955 10.2 34.0192L51.6 57.9215Z" fill="#FF64CB"/>
</g>
<g id="darkGroup">
<path id="dark2" opacity="0.7" d="M51.6 57.9215C53.1999 58.8453 53.1999 61.1547 51.6 62.0785L10.2 85.9807C8.59997 86.9044 6.59998 85.7498 6.59998 83.9023V36.0976C6.59998 34.2501 8.59998 33.0955 10.2 34.0192L51.6 57.9215Z" fill="#6700EE"/>
<path id="dark1" opacity="0.7" d="M72 57.9215C73.6 58.8453 73.6 61.1547 72 62.0785L30.6 85.9807C29 86.9044 27 85.7498 27 83.9023V36.0976C27 34.2501 29 33.0955 30.6 34.0192L72 57.9215Z" fill="#6700EE"/>
</g>
</g>
</g>
</svg>
