<svg width="36" height="36" viewBox="0 0 36 36" fill="none" xmlns="http://www.w3.org/2000/svg">
<g id="ant-design:whats-app-outlined">
<path id="Vector" d="M25.0839 21.0902C24.7007 20.8934 22.7918 19.9582 22.4367 19.8316C22.0816 19.698 21.8215 19.6348 21.5648 20.0285C21.3047 20.4188 20.5664 21.2871 20.3344 21.5508C20.1094 21.8109 19.8808 21.8426 19.4976 21.6492C17.2195 20.5102 15.7254 19.6172 14.2242 17.0402C13.8269 16.3547 14.6215 16.4039 15.3633 14.9238C15.4898 14.6637 15.4265 14.4422 15.3281 14.2453C15.2297 14.0484 14.4562 12.143 14.1328 11.366C13.8199 10.6102 13.4965 10.7156 13.2609 10.7016C13.0359 10.6875 12.7793 10.6875 12.5191 10.6875C12.259 10.6875 11.8406 10.7859 11.4855 11.1691C11.1305 11.5594 10.1285 12.498 10.1285 14.4035C10.1285 16.309 11.5172 18.1547 11.707 18.4148C11.9039 18.675 14.4387 22.5844 18.3304 24.2684C20.7914 25.3301 21.7547 25.4215 22.9851 25.2387C23.734 25.1262 25.2773 24.3035 25.5972 23.393C25.9172 22.4859 25.9172 21.709 25.8222 21.5473C25.7273 21.375 25.4672 21.2766 25.0839 21.0902Z" fill="url(#paint0_linear_0_3)"/>
<path id="Vector_2" d="M32.5266 11.8969C31.732 10.009 30.593 8.31445 29.141 6.85898C27.6891 5.40703 25.9945 4.26445 24.1031 3.47344C22.1695 2.66133 20.1164 2.25 18 2.25H17.9297C15.7992 2.26055 13.7355 2.68242 11.7949 3.51211C9.92108 4.31367 8.24061 5.45273 6.80272 6.90469C5.36483 8.35664 4.23631 10.0441 3.45585 11.925C2.64725 13.8727 2.23944 15.9434 2.24999 18.0738C2.26053 20.5137 2.84413 22.9359 3.93749 25.1016V30.4453C3.93749 31.3383 4.6617 32.0625 5.55467 32.0625H10.9019C13.0676 33.1559 15.4898 33.7395 17.9297 33.75H18.0035C20.1094 33.75 22.1519 33.3422 24.075 32.5441C25.9558 31.7602 27.6469 30.6352 29.0953 29.1973C30.5473 27.7594 31.6898 26.0789 32.4879 24.2051C33.3176 22.2645 33.7394 20.2008 33.75 18.0703C33.7605 15.9293 33.3457 13.8516 32.5266 11.8969V11.8969ZM27.2144 27.2953C24.75 29.7352 21.4805 31.0781 18 31.0781H17.9402C15.8203 31.0676 13.7144 30.5402 11.8547 29.5488L11.5594 29.3906H6.60936V24.4406L6.45116 24.1453C5.45975 22.2855 4.93241 20.1797 4.92186 18.0598C4.9078 14.5547 6.24725 11.2641 8.70467 8.78555C11.1586 6.30703 14.4387 4.93594 17.9437 4.92188H18.0035C19.7613 4.92188 21.4664 5.26289 23.073 5.93789C24.641 6.59531 26.0473 7.54102 27.2566 8.75039C28.4625 9.95625 29.4117 11.366 30.0691 12.934C30.7512 14.5582 31.0922 16.2809 31.0851 18.0598C31.0641 21.5613 29.6894 24.8414 27.2144 27.2953V27.2953Z" fill="url(#paint1_linear_0_3)"/>
</g>
<defs>
<linearGradient id="paint0_linear_0_3" x1="10.125" y1="26.0156" x2="25.875" y2="10.6875" gradientUnits="userSpaceOnUse">
<stop stop-color="#FF64CB"/>
<stop offset="1" stop-color="#6700EE"/>
</linearGradient>
<linearGradient id="paint1_linear_0_3" x1="3.35741" y1="33.75" x2="33.75" y2="2.25" gradientUnits="userSpaceOnUse">
<stop stop-color="#FF64CB"/>
<stop offset="1" stop-color="#6700EE"/>
</linearGradient>
</defs>
</svg>
